<svg xmlns="http://www.w3.org/2000/svg" viewBox="0 0 384 512" fill="currentColor">
  <path d="M194.2 32h-10.4c-6.6 0-12 5.4-12 12V160c-41.6 3.8-78 28.7-98.3 65.4L40 188.6c-4.7-4.7-12.3-4.7-17 0l-7.4 7.4c-4.7 4.7-4.7 12.3 0 17l33.5 36.8c-6.6 15.2-10.2 32-10.2 49.6C38.9 377 94.9 433 162.5 433h59C289.1 433 345.1 377 345.1 299.4c0-17.6-3.6-34.4-10.2-49.6l33.5-36.8c4.7-4.7 4.7-12.3 0-17l-7.4-7.4c-4.7-4.7-12.3-4.7-17 0l-33.5 36.8c-20.3-36.7-56.7-61.6-98.3-65.4V44c0-6.6-5.4-12-12-12zm-31.7 128c48.5 0 87.9 39.3 87.9 87.9s-39.3 87.9-87.9 87.9-87.9-39.3-87.9-87.9 39.4-87.9 87.9-87.9z"/>
</svg>
